# xmcd
#
# Track frame offsets: 
#        150
#        14445
#        27385
#        41084
#        51424
#        63664
#        75357
#        90613
#        103506
#
# Disc length: 1540 seconds
#
# Revision: 0
# Processed by: cddbd v1.4PL0 Copyright (c) Steve Scherf et al.
# Submitted via: ExactAudioCopy v0.90b4
#
DISCID=6f060209
DTITLE=J. D. Malaix Haring - The Bad Times Aren't So Bad
DYEAR=2001
DGENRE=Country
TTITLE0=The Bad Times Aren't So Bad
TTITLE1=If You Ever Say You're Leavin' (Honey, I'm goin' Too)
TTITLE2=Love of the Heart
TTITLE3=I Only Have time For The Dance
TTITLE4=So Do I
TTITLE5=Let's Have Another Drink (And Get Stupid)
TTITLE6=Grain of Sand
TTITLE7=I Went Down For the Last Time (the last time)
TTITLE8=Give It Up
EXTD=20020428085018\n\n(c)2001 J. D. Haring - Malaix Music BMI\n\nAll 
EXTD=songs by J. D. Haring except 4 by J. D. Haring/R. DeShazo
EXTT0=
EXTT1=
EXTT2=
EXTT3=
EXTT4=
EXTT5=
EXTT6=
EXTT7=
EXTT8=
PLAYORDER=
